# xmcd CD database file
#
# Track frame offsets:
#	150
#	17577
#	33635
#	55485
#	69210
#	85282
#	96960
#	115020
#	133087
#	149572
#	165905
#	177707
#	189970
#
# Disc length: 2781 seconds
#
# Revision: 0
# Processed by: cddbd v1.5PL3 Copyright (c) Steve Scherf et al.
# Submitted via: CDex 1.51
#
DISCID=b20adb0d
DTITLE=Joyce e Toninho Horta - Sem Voce
DYEAR=1995
DGENRE=MPB
TTITLE0=Ela e Carioca
TTITLE1=Correnteza
TTITLE2=Inutil Paisagem
TTITLE3=Frevo de Orfeu
TTITLE4=Ligia
TTITLE5=Vivo Sonhando
TTITLE6=Dindi
TTITLE7=So Danco Samba
TTITLE8=Outra Vez
TTITLE9=Sem Voce
TTITLE10=Este Seu Olhar - So em Teus Bracos
TTITLE11=Estrada do Sol
TTITLE12=Ela e Carioca - take 2 -
EXTD=YEAR: 1995
EXTT0=
EXTT1=
EXTT2=
EXTT3=
EXTT4=
EXTT5=
EXTT6=
EXTT7=
EXTT8=
EXTT9=
EXTT10=
EXTT11=
EXTT12=
PLAYORDER=
